<?xml version="1.0" encoding="UTF-8"?>
<svg width="112px" height="112px" viewBox="0 0 112 112" version="1.1" xmlns="http://www.w3.org/2000/svg" xmlns:xlink="http://www.w3.org/1999/xlink">
    <!-- Generator: Sketch 48 (47235) - http://www.bohemiancoding.com/sketch -->
    <title>Feature04</title>
    <desc>Created with Sketch.</desc>
    <defs>
        <circle id="path-1" cx="56" cy="56" r="56"></circle>
        <filter x="-40.7%" y="-28.6%" width="181.4%" height="157.1%" filterUnits="objectBoundingBox" id="filter-3">
            <feGaussianBlur stdDeviation="8" in="SourceGraphic"></feGaussianBlur>
        </filter>
        <path d="M58.1634436,65.5355449 C58.8504326,63.5595821 59.7959514,61.0477338 61,58 L56,41 C51.3333333,41 46.978787,41.2548096 42.9363609,41.7644288 C46.2348445,37.6410791 51.3089937,35 57,35 C66.9411255,35 75,43.0588745 75,53 C75,56.3947285 74.0602478,59.5699661 72.4267005,62.2797555 L76.0424682,69 L83,71 L81,78 L86.3205081,80 L85,85 L89,90 L86.3205081,100.08588 L73.160254,97.2916512 L57.9660505,70.9745188 C57.6461768,70.9914349 57.3240887,71 57,71 C56.7261154,71 56.725729,70.4330876 56.998841,69.2992627 L55.660254,66.9807621 L58.1634436,65.5355449 Z" id="path-4"></path>
        <filter x="-1.1%" y="-0.8%" width="104.3%" height="101.5%" filterUnits="objectBoundingBox" id="filter-5">
            <feOffset dx="1" dy="0" in="SourceAlpha" result="shadowOffsetOuter1"></feOffset>
            <feColorMatrix values="0 0 0 0 0.168627451   0 0 0 0 0.368627451   0 0 0 0 0.71372549  0 0 0 1 0" type="matrix" in="shadowOffsetOuter1"></feColorMatrix>
        </filter>
        <path d="M39.9999985,72.12896 C34.0731254,69.1835545 30,63.067442 30,56 C30,46.0588745 38.0588745,38 48,38 C57.9411255,38 66,46.0588745 66,56 C66,62.6625391 62.3802146,68.4796321 57.000005,71.5919176 L57,78 L62,83 L57,88 L61,93 L56,98 L59,105 L50,112 L40,103 L40,72.1289668 Z M48,56 C51.3137085,56 54,53.3137085 54,50 C54,46.6862915 51.3137085,44 48,44 C44.6862915,44 42,46.6862915 42,50 C42,53.3137085 44.6862915,56 48,56 Z" id="path-6"></path>
        <filter x="-1.4%" y="-0.7%" width="105.6%" height="101.4%" filterUnits="objectBoundingBox" id="filter-7">
            <feOffset dx="1" dy="0" in="SourceAlpha" result="shadowOffsetOuter1"></feOffset>
            <feColorMatrix values="0 0 0 0 0.168627451   0 0 0 0 0.368627451   0 0 0 0 0.71372549  0 0 0 1 0" type="matrix" in="shadowOffsetOuter1"></feColorMatrix>
        </filter>
    </defs>
    <g id="Vectors" stroke="none" stroke-width="1" fill="none" fill-rule="evenodd">
        <g id="Feature04">
            <g id="icon">
                <g id="Group-4">
                    <mask id="mask-2" fill="white">
                        <use xlink:href="#path-1"></use>
                    </mask>
                    <use id="Oval-13" fill="#5C8CDE" xlink:href="#path-1"></use>
                    <path d="M66.5487305,43.8714729 C73.7746054,46.2105828 79,52.9950632 79,61 C79,64.3947285 78.0602478,67.5699661 76.4267005,70.2797555 L80.0424682,77 L87,79 L85,86 L90.3205081,88 L89,93 L93,98 L90.3205081,108.08588 L77.160254,105.291651 L61.9731602,78.9868331 C61.6557339,79.1984898 61.3312026,79.4003302 61,79.5919205 L61,86 L66,91 L61,96 L65,101 L60,106 L63,113 L54,120 L44,111 L44,80.1289668 C38.0731254,77.1835545 34,71.067442 34,64 C34,56.538824 38.5396028,50.137929 45.0074509,47.4086724 C45.002498,47.2730605 45,47.136822 45,47 C45,40.9248678 49.9248678,36 56,36 C60.9882694,36 65.2010312,39.3203426 66.5487305,43.8714729 Z M64.1992065,43.2834511 C62.7844213,40.1672034 59.6452994,38 56,38 C51.1291111,38 47.1619817,41.8694543 47.004836,46.7021386 C48.2856971,46.3329213 49.6252211,46.1021188 51.0061672,46.0269717 C53.8651397,44.1149391 57.3023659,43 61,43 C62.0918348,43 63.1609646,43.0972114 64.1992065,43.2834511 Z M52,64 C55.3137085,64 58,61.3137085 58,58 C58,54.6862915 55.3137085,52 52,52 C48.6862915,52 46,54.6862915 46,58 C46,61.3137085 48.6862915,64 52,64 Z" id="Combined-Shape" fill="#000000" opacity="0.3" style="mix-blend-mode: hard-light;" filter="url(#filter-3)" mask="url(#mask-2)"></path>
                </g>
                <g id="Combined-Shape">
                    <use fill="black" fill-opacity="1" filter="url(#filter-5)" xlink:href="#path-4"></use>
                    <use fill="#7AA3EA" fill-rule="evenodd" xlink:href="#path-4"></use>
                </g>
                <g id="Oval-16">
                    <use fill="black" fill-opacity="1" filter="url(#filter-7)" xlink:href="#path-6"></use>
                    <use fill="#98B6EA" fill-rule="evenodd" xlink:href="#path-6"></use>
                </g>
                <path d="M48,72 C39.163444,72 32,64.836556 32,56 C32,47.163444 39.163444,40 48,40 C56.836556,40 64,47.163444 64,56 C64,64.836556 56.836556,72 48,72 Z M48,70 C55.7319865,70 62,63.7319865 62,56 C62,48.2680135 55.7319865,42 48,42 C40.2680135,42 34,48.2680135 34,56 C34,63.7319865 40.2680135,70 48,70 Z" id="Oval-17" fill="#7AA3EA"></path>
                <rect id="Rectangle-30" fill="#5C8CDE" x="42" y="74" width="2" height="28" rx="1"></rect>
                <rect id="Rectangle-30" fill="#5C8CDE" transform="translate(68.866025, 82.624356) rotate(-30.000000) translate(-68.866025, -82.624356) " x="67.8660254" y="68.6243557" width="2" height="28" rx="1"></rect>
                <path d="M63.6590625,36.2718925 C62.8973722,35.9684165 62.1100776,35.7154574 61.3013173,35.5171539 C59.9398904,32.2760865 56.7357495,30 53,30 C48.0294373,30 44,34.0294373 44,39 C44,43.9705627 48.0294373,48 53,48 C53.2137211,48 53.4257022,47.9925505 53.635698,47.977897 C53.8620102,48.5957757 53.9896086,49.2612476 53.999392,49.9552118 C53.6702275,49.984856 53.3368823,50 53,50 C46.9248678,50 42,45.0751322 42,39 C42,32.9248678 46.9248678,28 53,28 C58.1334391,28 62.4455758,31.5164134 63.6590625,36.2718925 Z" id="Oval-18" fill="#2B5EB6"></path>
                <path d="M62.5487305,35.8714729 C61.7865514,35.6247456 61.0021152,35.4274768 60.1992065,35.2834511 C58.7844213,32.1672034 55.6452994,30 52,30 C47.0294373,30 43,34.0294373 43,39 C43,43.9705627 47.0294373,48 52,48 C52.5429094,48 53.074591,47.9519285 53.5910207,47.8598097 C53.8295589,48.4706558 53.9708802,49.1301809 53.9959639,49.8193644 C53.3486743,49.9380114 52.6815763,50 52,50 C45.9248678,50 41,45.0751322 41,39 C41,32.9248678 45.9248678,28 52,28 C56.9882694,28 61.2010312,31.3203426 62.5487305,35.8714729 Z" id="Oval-18" fill="#6DE8D7"></path>
            </g>
        </g>
    </g>
</svg>