<?xml version="1.0" encoding="UTF-8"?>
<svg width="112px" height="112px" viewBox="0 0 112 112" version="1.1" xmlns="http://www.w3.org/2000/svg" xmlns:xlink="http://www.w3.org/1999/xlink">
    <!-- Generator: Sketch 48 (47235) - http://www.bohemiancoding.com/sketch -->
    <title>Feature03</title>
    <desc>Created with Sketch.</desc>
    <defs>
        <circle id="path-1" cx="56" cy="56" r="56"></circle>
        <filter x="-27.3%" y="-30.0%" width="154.5%" height="160.0%" filterUnits="objectBoundingBox" id="filter-3">
            <feGaussianBlur stdDeviation="8" in="SourceGraphic"></feGaussianBlur>
        </filter>
        <path d="M80,32 L80,32 C84.418278,32 88,35.581722 88,40 L88,100 C88,102.209139 86.209139,104 84,104 L72,104 L72,40 C72,35.581722 75.581722,32 80,32 Z" id="path-4"></path>
        <path d="M88,74 L88,104 C88,108.418278 84.418278,112 80,112 C75.581722,112 72,108.418278 72,104 L72,40 L84,40 C86.209139,40 88,41.790861 88,44 L88,74 L88,104 C88,108.418278 84.418278,112 80,112 L32,112 C27.581722,112 24,108.418278 24,104 L24,36 C24,33.790861 25.790861,32 28,32 L68,32 C70.209139,32 72,33.790861 72,36 L72,40 L84,40 C86.209139,40 88,41.790861 88,44 L88,74 Z" id="path-5"></path>
        <filter x="-0.8%" y="-0.6%" width="103.1%" height="101.3%" filterUnits="objectBoundingBox" id="filter-6">
            <feOffset dx="1" dy="0" in="SourceAlpha" result="shadowOffsetOuter1"></feOffset>
            <feColorMatrix values="0 0 0 0 0.168627451   0 0 0 0 0.368627451   0 0 0 0 0.71372549  0 0 0 1 0" type="matrix" in="shadowOffsetOuter1"></feColorMatrix>
        </filter>
    </defs>
    <g id="Vectors" stroke="none" stroke-width="1" fill="none" fill-rule="evenodd">
        <g id="Feature03">
            <g id="icon">
                <g id="Group-4">
                    <mask id="mask-2" fill="white">
                        <use xlink:href="#path-1"></use>
                    </mask>
                    <use id="Oval-13" fill="#5C8CDE" xlink:href="#path-1"></use>
                    <path d="M92,52.1904278 L92,108 C92,110.209139 90.209139,112 88,112 L76,112 L76,116 C76,118.209139 74.209139,120 72,120 L32,120 C29.790861,120 28,118.209139 28,116 L28,51 L26.9781821,51 C25.8231129,52.8041564 23.8012086,54 21.5,54 C17.9101491,54 15,51.0898509 15,47.5 C15,43.9101491 17.9101491,41 21.5,41 C23.8012086,41 25.8231129,42.1958436 26.9781821,44 L29.0702576,44 C30.4534952,41.6087945 33.0388706,40 36,40 L84,40 C86.9611285,40 89.5465032,41.6087935 90.9297411,43.9999978 L91.0218179,44 C92.1768871,42.1958436 94.1987914,41 96.5,41 C100.089851,41 103,43.9101491 103,47.5 C103,51.0898509 100.089851,54 96.5,54 C94.7535079,54 93.1678945,53.3111959 92,52.1904278 Z" id="Combined-Shape" fill="#000000" opacity="0.3" style="mix-blend-mode: hard-light;" filter="url(#filter-3)" mask="url(#mask-2)"></path>
                </g>
                <g id="Group-3" transform="translate(16.000000, 36.000000)"></g>
                <g id="Rectangle-21">
                    <use fill="#4D7FD5" xlink:href="#path-4"></use>
                    <use fill="#2B5EB6" xlink:href="#path-4"></use>
                </g>
                <circle id="Oval-12" fill="#4D7FD5" cx="17.5" cy="39.5" r="6.5"></circle>
                <path d="M19.5,36 L92,36 L92,43 L19.5,43 C17.5670034,43 16,41.4329966 16,39.5 L16,39.5 C16,37.5670034 17.5670034,36 19.5,36 Z" id="Rectangle-11" fill="#98B6EA"></path>
                <circle id="Oval-12" fill="#4D7FD5" cx="92.5" cy="39.5" r="6.5"></circle>
                <g id="Rectangle-21" transform="translate(56.000000, 72.000000) scale(1, -1) translate(-56.000000, -72.000000) ">
                    <use fill="black" fill-opacity="1" filter="url(#filter-6)" xlink:href="#path-5"></use>
                    <use fill="#7AA3EA" fill-rule="evenodd" xlink:href="#path-5"></use>
                </g>
                <path d="M59,35 L61,35 L60,38 L59,35 Z M27,35 L29,35 L28,38 L27,35 Z M35,35 L37,35 L36,38 L35,35 Z M43,35 L45,35 L44,38 L43,35 Z M51,35 L53,35 L52,38 L51,35 Z M67,35 L69,35 L68,38 L67,35 Z M59,43 L61,43 L60,46 L59,43 Z M27,43 L29,43 L28,46 L27,43 Z M35,43 L37,43 L36,46 L35,43 Z M43,43 L45,43 L44,46 L43,43 Z M51,43 L53,43 L52,46 L51,43 Z M67,43 L69,43 L68,46 L67,43 Z M59,51 L61,51 L60,54 L59,51 Z M27,51 L29,51 L28,54 L27,51 Z M35,51 L37,51 L36,54 L35,51 Z M43,51 L45,51 L44,54 L43,51 Z M51,51 L53,51 L52,54 L51,51 Z M67,51 L69,51 L68,54 L67,51 Z M59,59 L61,59 L60,62 L59,59 Z M27,59 L29,59 L28,62 L27,59 Z M35,59 L37,59 L36,62 L35,59 Z M43,59 L45,59 L44,62 L43,59 Z M51,59 L53,59 L52,62 L51,59 Z M67,59 L69,59 L68,62 L67,59 Z M59,67 L61,67 L60,70 L59,67 Z M27,67 L29,67 L28,70 L27,67 Z M35,67 L37,67 L36,70 L35,67 Z M43,67 L45,67 L44,70 L43,67 Z M51,67 L53,67 L52,70 L51,67 Z M67,67 L69,67 L68,70 L67,67 Z M59,75 L61,75 L60,78 L59,75 Z M27,75 L29,75 L28,78 L27,75 Z M35,75 L37,75 L36,78 L35,75 Z M43,75 L45,75 L44,78 L43,75 Z M51,75 L53,75 L52,78 L51,75 Z M67,75 L69,75 L68,78 L67,75 Z M59,83 L61,83 L60,86 L59,83 Z M27,83 L29,83 L28,86 L27,83 Z M35,83 L37,83 L36,86 L35,83 Z M43,83 L45,83 L44,86 L43,83 Z M51,83 L53,83 L52,86 L51,83 Z M67,83 L69,83 L68,86 L67,83 Z M59,91 L61,91 L60,94 L59,91 Z M27,91 L29,91 L28,94 L27,91 Z M35,91 L37,91 L36,94 L35,91 Z M43,91 L45,91 L44,94 L43,91 Z M51,91 L53,91 L52,94 L51,91 Z M67,91 L69,91 L68,94 L67,91 Z M59,99 L61,99 L60,102 L59,99 Z M27,99 L29,99 L28,102 L27,99 Z M35,99 L37,99 L36,102 L35,99 Z M43,99 L45,99 L44,102 L43,99 Z M51,99 L53,99 L52,102 L51,99 Z M67,99 L69,99 L68,102 L67,99 Z M59,107 L61,107 L60,110 L59,107 Z M27,107 L29,107 L28,110 L27,107 Z M35,107 L37,107 L36,110 L35,107 Z M43,107 L45,107 L44,110 L43,107 Z M51,107 L53,107 L52,110 L51,107 Z M67,107 L69,107 L68,110 L67,107 Z M63,103 L65,103 L64,106 L63,103 Z M31,103 L33,103 L32,106 L31,103 Z M39,103 L41,103 L40,106 L39,103 Z M47,103 L49,103 L48,106 L47,103 Z M55,103 L57,103 L56,106 L55,103 Z M63,95 L65,95 L64,98 L63,95 Z M31,95 L33,95 L32,98 L31,95 Z M39,95 L41,95 L40,98 L39,95 Z M47,95 L49,95 L48,98 L47,95 Z M55,95 L57,95 L56,98 L55,95 Z M63,87 L65,87 L64,90 L63,87 Z M31,87 L33,87 L32,90 L31,87 Z M39,87 L41,87 L40,90 L39,87 Z M47,87 L49,87 L48,90 L47,87 Z M55,87 L57,87 L56,90 L55,87 Z M63,79 L65,79 L64,82 L63,79 Z M31,79 L33,79 L32,82 L31,79 Z M39,79 L41,79 L40,82 L39,79 Z M47,79 L49,79 L48,82 L47,79 Z M55,79 L57,79 L56,82 L55,79 Z M63,71 L65,71 L64,74 L63,71 Z M31,71 L33,71 L32,74 L31,71 Z M39,71 L41,71 L40,74 L39,71 Z M47,71 L49,71 L48,74 L47,71 Z M55,71 L57,71 L56,74 L55,71 Z M63,63 L65,63 L64,66 L63,63 Z M31,63 L33,63 L32,66 L31,63 Z M39,63 L41,63 L40,66 L39,63 Z M47,63 L49,63 L48,66 L47,63 Z M55,63 L57,63 L56,66 L55,63 Z M63,55 L65,55 L64,58 L63,55 Z M31,55 L33,55 L32,58 L31,55 Z M39,55 L41,55 L40,58 L39,55 Z M47,55 L49,55 L48,58 L47,55 Z M55,55 L57,55 L56,58 L55,55 Z M63,47 L65,47 L64,50 L63,47 Z M31,47 L33,47 L32,50 L31,47 Z M39,47 L41,47 L40,50 L39,47 Z M47,47 L49,47 L48,50 L47,47 Z M55,47 L57,47 L56,50 L55,47 Z M63,39 L65,39 L64,42 L63,39 Z M31,39 L33,39 L32,42 L31,39 Z M39,39 L41,39 L40,42 L39,39 Z M47,39 L49,39 L48,42 L47,39 Z M55,39 L57,39 L56,42 L55,39 Z" id="Combined-Shape" stroke="#7AA3EA" stroke-width="0.5" fill="#98B6EA"></path>
                <path d="M64.587762,105.303141 L64.587762,105.650238 C64.587762,105.843387 64.4263189,106 64.2272122,106 L63.6732443,106 C63.4741376,106 63.3126944,105.843387 63.3126944,105.650238 L63.3126944,105.303141 C63.3126944,105.109992 63.4741376,104.953379 63.6732443,104.953379 L64.2272122,104.953379 C64.4263189,104.953379 64.587762,105.109992 64.587762,105.303141 Z M65.1786676,94.1446905 C66.7538666,94.5009221 68,95.5547739 68,97.7676153 C68,100.04411 65.468108,102.581023 64.4707108,103.492249 C65.5023386,101.756762 66.1708664,99.2943494 66.1708664,97.8331718 C66.1708664,96.662384 65.858671,94.9804647 65.1786676,94.1446905 Z M61.8143232,97.8331814 C61.8143232,99.2202391 62.417234,101.508723 63.3607841,103.222041 C62.1934106,102.146305 60,99.8484018 60,97.7675297 C60,95.4918911 61.2250458,94.44175 62.8301598,94.1157753 C62.1337767,94.9412735 61.8143232,96.6488826 61.8143232,97.8331814 Z M63.9926291,103.60322 C62.8914611,101.916733 62.1661438,99.3305339 62.1661438,97.8332004 C62.1661438,96.2542305 62.7006914,94.3471926 63.4967259,94.0223596 C63.6398277,94.0104662 63.7845969,94.0028544 63.9311316,94 C64.1269036,94.0037107 64.3214004,94.0153187 64.5130529,94.03549 C65.2953559,94.3896283 65.8191145,96.2707861 65.8191145,97.8332004 C65.8191145,99.3305339 65.0937972,101.916733 63.9926291,103.60322 Z" id="Logo" fill="#FFE578"></path>
            </g>
        </g>
    </g>
</svg>