<?xml version="1.0" encoding="UTF-8"?>
<svg width="112px" height="112px" viewBox="0 0 112 112" version="1.1" xmlns="http://www.w3.org/2000/svg" xmlns:xlink="http://www.w3.org/1999/xlink">
    <!-- Generator: Sketch 48 (47235) - http://www.bohemiancoding.com/sketch -->
    <title>Feature05</title>
    <desc>Created with Sketch.</desc>
    <defs>
        <circle id="path-1" cx="56" cy="56" r="56"></circle>
        <filter x="-37.5%" y="-30.4%" width="175.0%" height="160.8%" filterUnits="objectBoundingBox" id="filter-3">
            <feGaussianBlur stdDeviation="8" in="SourceGraphic"></feGaussianBlur>
        </filter>
        <path d="M31.2336632,52 L42.7663368,52 C44.652488,52 46.282343,53.3176005 46.6775465,55.1618836 L51.6448386,78.3425803 C51.8809522,79.4444437 52,80.5681682 52,81.6950457 L52,104 C52,108.418278 48.418278,112 44,112 L30,112 C25.581722,112 22,108.418278 22,104 L22,81.6950457 C22,80.5681682 22.1190478,79.4444437 22.3551614,78.3425803 L27.3224535,55.1618836 C27.717657,53.3176005 29.347512,52 31.2336632,52 Z" id="path-4"></path>
        <filter x="-1.7%" y="-0.8%" width="106.7%" height="101.7%" filterUnits="objectBoundingBox" id="filter-5">
            <feOffset dx="1" dy="0" in="SourceAlpha" result="shadowOffsetOuter1"></feOffset>
            <feColorMatrix values="0 0 0 0 0.168627451   0 0 0 0 0.368627451   0 0 0 0 0.71372549  0 0 0 1 0" type="matrix" in="shadowOffsetOuter1"></feColorMatrix>
        </filter>
        <filter x="-1.7%" y="-0.8%" width="106.7%" height="101.7%" filterUnits="objectBoundingBox" id="filter-6">
            <feOffset dx="-1" dy="0" in="SourceAlpha" result="shadowOffsetInner1"></feOffset>
            <feComposite in="shadowOffsetInner1" in2="SourceAlpha" operator="arithmetic" k2="-1" k3="1" result="shadowInnerInner1"></feComposite>
            <feColorMatrix values="0 0 0 0 0.168627451   0 0 0 0 0.368627451   0 0 0 0 0.71372549  0 0 0 1 0" type="matrix" in="shadowInnerInner1"></feColorMatrix>
        </filter>
        <rect id="path-7" x="56" y="100" width="30" height="12" rx="2"></rect>
        <filter x="-3.3%" y="-8.3%" width="113.3%" height="116.7%" filterUnits="objectBoundingBox" id="filter-8">
            <feOffset dx="2" dy="0" in="SourceAlpha" result="shadowOffsetOuter1"></feOffset>
            <feColorMatrix values="0 0 0 0 0.168627451   0 0 0 0 0.368627451   0 0 0 0 0.71372549  0 0 0 1 0" type="matrix" in="shadowOffsetOuter1"></feColorMatrix>
        </filter>
    </defs>
    <g id="Vectors" stroke="none" stroke-width="1" fill="none" fill-rule="evenodd">
        <g id="Feature05">
            <g id="icon">
                <g id="Group-4">
                    <mask id="mask-2" fill="white">
                        <use xlink:href="#path-1"></use>
                    </mask>
                    <use id="Oval-13" fill="#5C8CDE" xlink:href="#path-1"></use>
                    <path d="M57.6783131,47 C57.7484163,46.6338256 57.8524318,46.2951364 58,46 C56.4506129,46 55.1172799,46 54.0000008,46 C51.1710499,53.0875431 54.9198753,55 56,55 C57.1045695,55 58,54 58,53 C58,52.1475682 57.27336,49.1152165 57.6783131,47 L55,47 C54.4477153,47 54,46.5522847 54,46 C53.6905316,46 53.3976381,46 53.1213203,46 L54,46 L46,60 L46.7663368,60 C48.652488,60 50.282343,61.3176005 50.6775465,63.1618836 L55.6448386,86.3425803 C55.8809522,87.4444437 56,88.5681682 56,89.6950457 L56,112 C56,116.418278 52.418278,120 48,120 L34,120 C29.581722,120 26,116.418278 26,112 L26,89.6950457 C26,88.5681682 26.1190478,87.4444437 26.3551614,86.3425803 L31.3224535,63.1618836 C31.717657,61.3176005 33.347512,60 35.2336632,60 L36,60 L36,54 L35.2194515,48.536333 C35.1018045,47.7128039 34.4866635,47.048094 33.6747006,46.8671042 C32.9818677,46.7126689 32.4236341,46.4236341 32,46 C31,45 33,42 36,42 C39.3333333,42 45.3333333,42 54,42 Z M62,108 L88,108 C89.1045695,108 90,108.895431 90,110 L90,118 C90,119.104569 89.1045695,120 88,120 L62,120 C60.8954305,120 60,119.104569 60,118 L60,110 C60,108.895431 60.8954305,108 62,108 Z" id="Combined-Shape" fill="#000000" opacity="0.3" style="mix-blend-mode: hard-light;" filter="url(#filter-3)" mask="url(#mask-2)"></path>
                </g>
                <g id="Rectangle-31">
                    <use fill="black" fill-opacity="1" filter="url(#filter-5)" xlink:href="#path-4"></use>
                    <use fill="#7AA3EA" fill-rule="evenodd" xlink:href="#path-4"></use>
                    <use fill="black" fill-opacity="1" filter="url(#filter-6)" xlink:href="#path-4"></use>
                </g>
                <path d="M47.5463238,82.4536762 L26,104 L26,88.6097722 C26,85.5457933 26.3353296,82.4910166 27,79.5 L27.0178056,79.4198749 C27.6052433,76.7764053 29.8086086,74.7990435 32.5,74.5 C35.4907975,74.1676892 38.5092025,74.1676892 41.5,74.5 C44.1913914,74.7990435 46.3947567,76.7764053 46.9821944,79.4198749 L47,79.5 C47.2174162,80.4783731 47.399594,81.4635683 47.5463238,82.4536762 Z" id="Rectangle-31" fill="#5C8CDE"></path>
                <rect id="Rectangle-31" fill="#2B5EB6" x="32" y="46" width="10" height="6"></rect>
                <path d="M52,47 C53.1045695,47 54,46 54,45 C54,44 53,40 54,38 C50.6666667,38 48.3333333,38 47,38 C47,45 50.8954305,47 52,47 Z" id="Oval-20" fill="#2B5EB6"></path>
                <path d="M32,34 C35.3333333,34 41.3333333,34 50,34 L50,38 L49.1213203,38 C47.7630617,38 46.4604339,38.5395661 45.5,39.5 L45.5,39.5 C44.5219244,40.4780756 43.8552442,41.7237789 43.5839749,43.0801257 L43.1607768,45.1961161 C43.0672919,45.6635403 42.6568771,46 42.1801961,46 L32,46 L31.2194515,40.536333 C31.1018045,39.7128039 30.4866635,39.048094 29.6747006,38.8671042 C28.9818677,38.7126689 28.4236341,38.4236341 28,38 C27,37 29,34 32,34 Z" id="Rectangle-31" fill="#BDCFEF"></path>
                <rect id="Rectangle-32" fill="#2B5EB6" x="50" y="33" width="5" height="6" rx="1"></rect>
                <g id="Rectangle-33">
                    <use fill="black" fill-opacity="1" filter="url(#filter-8)" xlink:href="#path-7"></use>
                    <use fill="#7AA3EA" fill-rule="evenodd" xlink:href="#path-7"></use>
                </g>
                <path d="M77,110 C76.4477153,110 76,109.552285 76,109 C76,108.447715 76.4477153,108 77,108 C77.5522847,108 78,108.447715 78,109 C78,109.552285 77.5522847,110 77,110 Z M68,104 C67.4477153,104 67,103.552285 67,103 C67,102.447715 67.4477153,102 68,102 C68.5522847,102 69,102.447715 69,103 C69,103.552285 68.5522847,104 68,104 Z M61,106 C59.8954305,106 59,105.104569 59,104 C59,102.895431 59.8954305,102 61,102 C62.1045695,102 63,102.895431 63,104 C63,105.104569 62.1045695,106 61,106 Z M70,110 C68.8954305,110 68,109.104569 68,108 C68,106.895431 68.8954305,106 70,106 C71.1045695,106 72,106.895431 72,108 C72,109.104569 71.1045695,110 70,110 Z M81,107 C79.8954305,107 79,106.104569 79,105 C79,103.895431 79.8954305,103 81,103 C82.1045695,103 83,103.895431 83,105 C83,106.104569 82.1045695,107 81,107 Z M64,110 C63.4477153,110 63,109.552285 63,109 C63,108.447715 63.4477153,108 64,108 C64.5522847,108 65,108.447715 65,109 C65,109.552285 64.5522847,110 64,110 Z M75,105 C74.4477153,105 74,104.552285 74,104 C74,103.447715 74.4477153,103 75,103 C75.5522847,103 76,103.447715 76,104 C76,104.552285 75.5522847,105 75,105 Z" id="Oval-21-Copy" fill="#5C8CDE"></path>
                <path d="M72,60 C69.790861,60 68,58.209139 68,56 C68,53.790861 69.790861,52 72,52 C74.209139,52 76,53.790861 76,56 C76,58.209139 74.209139,60 72,60 Z M87,71 C84.790861,71 83,69.209139 83,67 C83,64.790861 84.790861,63 87,63 C89.209139,63 91,64.790861 91,67 C91,69.209139 89.209139,71 87,71 Z M76,78 C74.8954305,78 74,77.1045695 74,76 C74,74.8954305 74.8954305,74 76,74 C77.1045695,74 78,74.8954305 78,76 C78,77.1045695 77.1045695,78 76,78 Z" id="Oval-21-Copy-3" fill="#FFE578"></path>
            </g>
        </g>
    </g>
</svg>