<svg version="1.1" xmlns="http://www.w3.org/2000/svg" xmlns:xlink="http://www.w3.org/1999/xlink" x="0px" y="0px"
	 width="694px" height="579px" viewBox="0 0 694 579" xml:space="preserve" fill="#272727">
<ellipse cx="347.561" cy="333.472" rx="126.911" ry="127.93"/>
<path d="M694,229.155C694,151.935,631.898,89,555.291,89H138.814C62.208,89,0,151.935,0,229.155v209.779
	C0,516.156,62.208,579,138.814,579h416.477C631.898,579,694,516.156,694,438.935V229.155z M121.612,226.513
	c-22.597,0-40.917-18.467-40.917-41.244c0-22.779,18.319-41.245,40.917-41.245c22.598,0,40.917,18.466,40.917,41.245
	C162.529,208.046,144.21,226.513,121.612,226.513z M347.559,520.125c-102.264,0-185.166-83.565-185.166-186.65
	c0-103.083,82.902-186.648,185.166-186.648c102.262,0,185.166,83.565,185.166,186.648
	C532.725,436.56,449.821,520.125,347.559,520.125z"/>
<path d="M547.137,100.979C555.479,116.351,533.273,129,497.573,129H195.908c-35.703,0-57.906-12.649-49.566-28.021
	l40.266-73.677C194.947,11.932,221.188,0,245.218,0h203.043c24.029,0,50.273,11.932,58.61,27.302L547.137,100.979z"/>
</svg>
