<svg version="1.1" xmlns="http://www.w3.org/2000/svg" xmlns:xlink="http://www.w3.org/1999/xlink" x="0px" y="0px"
	 width="434.94px" height="380.867px" viewBox="0 0 434.94 380.867" enable-background="new 0 0 434.94 380.867"
	 xml:space="preserve" fill="#272727">
	<g>
		<g>
			<path d="M382.019,132.599c0.865-5.69,1.314-11.516,1.314-17.448C383.333,51.555,331.779,0,268.182,0
				c-46.368,0-86.328,27.409-104.58,66.906c-10.541-7.435-23.389-11.815-37.269-11.815c-35.765,0-64.758,28.993-64.758,64.758
				c0,1.217,0.04,2.425,0.106,3.625C25.978,134.359,0,167.553,0,206.818c0,48.115,39.005,87.121,87.121,87.121l62.569-0.101
				c-0.921-4.855-1.673-9.748-2.283-13.626h-6.837c-13.719,0-26.173-8.266-31.856-20.752c-5.683-12.487-3.546-27.393,5.465-37.737
				l79.867-91.686c6.647-7.63,16.271-12.011,26.391-12.011c10.12,0,19.744,4.443,26.392,12.073l79.867,91.749
				c9.011,10.345,11.147,25.125,5.465,37.612c-5.684,12.486-18.138,20.752-31.856,20.752h-3.579c0.872,4.39,1.974,8.931,3.351,13.385
				l51.529-0.083c46.023,0,83.334-37.31,83.334-83.333C434.94,174.895,412.996,144.752,382.019,132.599z"/>
		</g>
		<g>
			<path d="M258.716,248.854c0.002-2.328,0.056-3.641,0.056-3.641h41.533h-0.436h0.436l-79.867-91.686l-79.867,91.686
				h0.436h-0.436h38.701c0,0.034,0,0.068,0,0.106c0,1.604,0.5,22.894,6.095,48.894h0.091c11.545,52,46.506,119.938,152.314,68.716
				C263.167,363.816,258.767,269.841,258.716,248.854z"/>
		</g>
	</g>
	<polygon display="none" points="98.571,261.213 220.104,121.694 341.638,261.213 "/>
</svg>
